<?xml version="1.0" encoding="utf-8"?>
<!-- Generator: Adobe Illustrator 16.0.0, SVG Export Plug-In . SVG Version: 6.00 Build 0)  -->
<!DOCTYPE svg PUBLIC "-//W3C//DTD SVG 1.1//EN" "http://www.w3.org/Graphics/SVG/1.1/DTD/svg11.dtd">
<svg version="1.1" id="Layer_1" xmlns="http://www.w3.org/2000/svg" xmlns:xlink="http://www.w3.org/1999/xlink" x="0px" y="0px"
	 width="495.7px" height="104.6px" viewBox="0 0 495.7 104.6" style="enable-background:new 0 0 495.7 104.6;" xml:space="preserve"
	>
<style type="text/css">
<![CDATA[
	.st0{fill:#8DC63F;}
	.st1{fill:#5D9549;}
	.st2{display:inline;fill:#FFFFFF;}
	.st3{fill:#FFFFFF;}
	.st4{display:none;}
]]>
</style>
<g>
	<g>
		<path class="st0" d="M77,32.2l27.5,24.3c0.1-1.4,0.2-2.7,0.2-4.1C104.6,23.4,81.2,0,52.3,0S0,23.4,0,52.3
			c0,26.3,19.5,48.1,44.8,51.8L27.7,81.5L77,32.2z"/>
		<path class="st1" d="M104.5,56.4L77,32.2L27.7,81.5l17.1,22.6c2.5,0.4,5,0.5,7.5,0.5C79.8,104.6,102.4,83.4,104.5,56.4z"/>
	</g>
	<g>
		<rect x="27.7" y="32.2" class="st3" width="49.3" height="49.3"/>
		<path class="st3" d="M52.3,52.1c-9.4,0-17.1-7.6-17.1-17c0-9.4,7.6-17,17.1-17c9.4,0,17.1,7.6,17.1,17
			C69.4,44.4,61.7,52.1,52.3,52.1z M52.3,19.8c-8.4,0-15.2,6.8-15.2,15.2c0,8.4,6.8,15.2,15.2,15.2c8.4,0,15.2-6.8,15.2-15.2
			C67.6,26.6,60.7,19.8,52.3,19.8z"/>
		<g class="st4">
			<path class="st2" d="M50.3,56.1c1.7,0,3.1,0.2,4.2,0.6c1.2,0.4,2.1,0.8,2.7,1.3c0,0.8,0,1.8,0,2.9s0.1,2.1,0.2,2.9
				c-0.3,0.1-0.7,0.3-1.2,0.3c-0.4,0.1-0.9,0.1-1.3,0.1c-0.2-1.3-0.5-2.3-0.8-3.1c-0.3-0.8-0.6-1.4-1-1.9c-0.4-0.5-0.8-0.8-1.3-1
				c-0.5-0.2-1-0.3-1.6-0.3c-1.3,0-2.4,0.4-3.1,1.1C46.4,60,46,61.1,46,62.5c0,1.3,0.3,2.4,1,3.2c0.7,0.8,1.5,1.6,2.5,2.2
				c1,0.6,2.1,1.3,3.3,1.8c1.2,0.6,2.3,1.2,3.3,2c1,0.7,1.9,1.6,2.5,2.7c0.7,1.1,1,2.4,1,4c0,1.1-0.2,2.2-0.7,3.2
				c-0.5,1-1.1,1.9-1.9,2.7c-0.8,0.8-1.7,1.4-2.8,1.8c-1.1,0.4-2.3,0.7-3.6,0.7c-1,0-1.9-0.1-2.7-0.2c-0.8-0.1-1.5-0.3-2.2-0.5
				c-0.7-0.2-1.3-0.5-2-0.9c-0.7-0.4-1.4-0.8-2.2-1.3c0.2-1.1,0.3-2.2,0.3-3.3c0-1.1,0.1-2.1,0.1-2.9c0.3-0.1,0.7-0.2,1.2-0.2
				c0.4,0,0.8-0.1,1.2-0.1c0.1,1.1,0.2,2.1,0.4,3c0.2,0.9,0.6,1.6,1.1,2.3c0.5,0.6,1.1,1.1,1.9,1.5c0.8,0.3,1.8,0.5,3.1,0.5
				c0.8,0,1.5-0.1,2.2-0.4c0.6-0.3,1.1-0.6,1.5-1c0.4-0.4,0.7-0.9,0.9-1.4c0.2-0.5,0.3-1.1,0.3-1.7c0-1.3-0.3-2.4-1-3.2
				c-0.7-0.8-1.5-1.5-2.5-2.1c-1-0.6-2.1-1.2-3.3-1.7c-1.2-0.5-2.3-1.2-3.3-1.9c-1-0.7-1.9-1.7-2.5-2.8c-0.7-1.1-1-2.6-1-4.4
				c0-1.1,0.2-2.2,0.6-3.1c0.4-0.9,0.9-1.8,1.6-2.5c0.7-0.7,1.5-1.2,2.5-1.6C48,56.3,49.1,56.1,50.3,56.1z"/>
		</g>
	</g>
</g>
<g>
	<path d="M134.6,65.2l16.8-1.6c0.7,2,1.7,3.4,2.9,4.3c1.3,0.9,2.9,1.3,5,1.3c2.3,0,4-0.5,5.3-1.5c1-0.7,1.5-1.6,1.5-2.7
		c0-1.2-0.6-2.2-1.9-2.8c-0.9-0.5-3.4-1.1-7.3-1.7c-5.9-1-10-2-12.3-2.9c-2.3-0.9-4.2-2.4-5.8-4.4c-1.6-2.1-2.4-4.5-2.4-7.1
		c0-2.9,0.8-5.4,2.5-7.5c1.7-2.1,4-3.7,7-4.7c3-1,7-1.6,12-1.6c5.3,0,9.2,0.4,11.7,1.2c2.5,0.8,4.6,2.1,6.3,3.8
		c1.7,1.7,3.1,4,4.2,6.9l-16.1,1.6c-0.4-1.4-1.1-2.5-2.1-3.1c-1.3-0.9-2.9-1.3-4.8-1.3c-1.9,0-3.3,0.3-4.2,1
		c-0.9,0.7-1.3,1.5-1.3,2.5c0,1.1,0.6,1.9,1.7,2.5c1.1,0.6,3.5,1.1,7.3,1.5c5.6,0.6,9.8,1.5,12.6,2.7c2.8,1.1,4.9,2.8,6.3,4.9
		c1.5,2.1,2.2,4.4,2.2,7c0,2.6-0.8,5-2.3,7.5c-1.5,2.4-4,4.3-7.3,5.8c-3.3,1.4-7.8,2.1-13.6,2.1c-8.1,0-13.9-1.2-17.3-3.5
		C137.8,72.7,135.6,69.4,134.6,65.2z"/>
	<path d="M189.8,16.3h17v22.5c2.3-2.4,4.6-4.1,6.9-5.1c2.3-1,5-1.5,8.1-1.5c4.6,0,8.2,1.4,10.9,4.2c2.7,2.8,4,7.1,4,12.9v28.1h-17.1
		V53.1c0-2.8-0.5-4.7-1.5-5.9c-1-1.2-2.5-1.7-4.3-1.7c-2.1,0-3.7,0.8-5,2.3c-1.3,1.6-1.9,4.4-1.9,8.4v21.3h-17V16.3z"/>
	<path d="M244.7,55.4c0-6.8,2.3-12.3,6.8-16.7c4.6-4.4,10.7-6.6,18.5-6.6c8.9,0,15.6,2.6,20.1,7.7c3.6,4.1,5.5,9.2,5.5,15.3
		c0,6.8-2.3,12.4-6.8,16.7c-4.5,4.4-10.8,6.5-18.7,6.5c-7.1,0-12.9-1.8-17.3-5.4C247.4,68.6,244.7,62.7,244.7,55.4z M261.7,55.4
		c0,3.9,0.8,6.9,2.4,8.8c1.6,1.9,3.6,2.8,6,2.8c2.4,0,4.5-0.9,6-2.8c1.6-1.9,2.4-4.9,2.4-9c0-3.8-0.8-6.7-2.4-8.6
		c-1.6-1.9-3.5-2.8-5.9-2.8c-2.5,0-4.5,1-6.1,2.9C262.5,48.6,261.7,51.5,261.7,55.4z"/>
	<path d="M303.8,94.3V33.2h15.9v6.5c2.2-2.8,4.2-4.6,6-5.6c2.5-1.3,5.2-2,8.2-2c5.9,0,10.5,2.3,13.7,6.8c3.2,4.5,4.9,10.1,4.9,16.8
		c0,7.4-1.8,13-5.3,16.9s-8,5.8-13.4,5.8c-2.6,0-5-0.4-7.2-1.3c-2.2-0.9-4.1-2.2-5.8-4v21.1H303.8z M320.8,55.4
		c0,3.5,0.7,6.1,2.2,7.8c1.5,1.7,3.3,2.5,5.6,2.5c2,0,3.6-0.8,5-2.4c1.3-1.6,2-4.4,2-8.3c0-3.6-0.7-6.2-2.1-7.9
		c-1.4-1.7-3.1-2.5-5.1-2.5c-2.2,0-4,0.8-5.4,2.5C321.5,48.9,320.8,51.6,320.8,55.4z"/>
	<path class="st0" d="M361.3,16.3h17v61.1h-17V16.3z"/>
	<path class="st0" d="M404.6,47.5l-16.2-1.7c0.6-2.8,1.5-5.1,2.6-6.7c1.2-1.6,2.8-3,5-4.2c1.6-0.9,3.7-1.5,6.4-2
		c2.7-0.5,5.7-0.7,8.8-0.7c5.1,0,9.2,0.3,12.3,0.9c3.1,0.6,5.7,1.8,7.7,3.6c1.4,1.3,2.6,3,3.4,5.3c0.8,2.3,1.3,4.5,1.3,6.6V68
		c0,2.1,0.1,3.7,0.4,4.9c0.3,1.2,0.8,2.7,1.7,4.5h-15.9c-0.6-1.1-1.1-2-1.3-2.6c-0.2-0.6-0.4-1.5-0.6-2.8c-2.2,2.1-4.4,3.7-6.6,4.6
		c-3,1.2-6.5,1.8-10.5,1.8c-5.3,0-9.3-1.2-12-3.7c-2.7-2.4-4.1-5.5-4.1-9c0-3.4,1-6.1,3-8.3c2-2.2,5.6-3.8,10.9-4.8
		c6.4-1.3,10.5-2.2,12.4-2.7c1.9-0.5,3.9-1.2,6-2c0-2.1-0.4-3.5-1.3-4.4c-0.9-0.8-2.4-1.3-4.5-1.3c-2.8,0-4.9,0.4-6.3,1.3
		C406.1,44.3,405.3,45.6,404.6,47.5z M419.3,56.4c-2.3,0.8-4.8,1.6-7.3,2.2c-3.4,0.9-5.6,1.8-6.5,2.7c-0.9,0.9-1.4,2-1.4,3.1
		c0,1.3,0.5,2.4,1.4,3.3c0.9,0.8,2.3,1.3,4.1,1.3c1.9,0,3.6-0.5,5.3-1.4c1.6-0.9,2.8-2,3.5-3.4c0.7-1.3,1-3,1-5.1V56.4z"/>
	<path class="st0" d="M447,16.3h17.1v21.2c1.7-1.8,3.6-3.1,5.8-4c2.2-0.9,4.5-1.3,7.2-1.3c5.4,0,9.9,1.9,13.4,5.8s5.3,9.4,5.3,16.7
		c0,4.8-0.8,9.1-2.4,12.8c-1.6,3.7-3.8,6.4-6.7,8.3s-6,2.7-9.5,2.7c-3,0-5.7-0.6-8.2-1.9c-1.9-1-3.9-2.9-6.1-5.6v6.5H447V16.3z
		 M464,55.2c0,3.8,0.7,6.6,2.1,8.3c1.4,1.7,3.2,2.6,5.4,2.6c2,0,3.7-0.8,5.1-2.5c1.4-1.7,2.1-4.5,2.1-8.5c0-3.5-0.7-6.1-2-7.7
		c-1.3-1.6-3-2.5-4.9-2.5c-2.3,0-4.2,0.9-5.6,2.6C464.7,49.1,464,51.7,464,55.2z"/>
</g>
</svg>
